<?xml version="1.0" encoding="UTF-8"?>
<svg width="17px" height="21px" viewBox="0 0 17 21" version="1.1" xmlns="http://www.w3.org/2000/svg" xmlns:xlink="http://www.w3.org/1999/xlink">
    <!-- Generator: Sketch 60.1 (88133) - https://sketch.com -->
    <title>编组 10</title>
    <desc>Created with Sketch.</desc>
    <g id="页面-1" stroke="none" stroke-width="1" fill="none" fill-rule="evenodd">
        <g id="自定义预设备份" transform="translate(-559.000000, -1001.000000)" fill-rule="nonzero">
            <g id="编组-10" transform="translate(559.000000, 1001.000000)">
                <g id="邮箱" transform="translate(0.000000, 9.000000)" fill="#FFFFFF">
                    <path d="M13.2142857,0 C13.6878866,0 14.14209,0.191557885 14.4769764,0.532533118 C14.8118628,0.873508351 15,1.33597001 15,1.81818181 L15,10.1818182 C15,10.66403 14.8118628,11.1264916 14.4769764,11.4674669 C14.14209,11.8084421 13.6878866,12 13.2142857,12 L1.78571429,12 C1.31211342,12 0.857909996,11.8084421 0.523023603,11.4674669 C0.18813721,11.1264916 0,10.66403 0,10.1818182 L0,1.81818181 C0,1.33597001 0.188137216,0.873508351 0.523023609,0.532533118 C0.857910001,0.191557885 1.31211342,0 1.78571429,0 L13.2142857,0 Z M1.42857143,2.03163636 L1.42857143,10.1818182 C1.42857143,10.2782605 1.46619887,10.3707529 1.53317615,10.4389479 C1.60015343,10.507143 1.69099412,10.5454545 1.78571429,10.5454545 L13.2142857,10.5454545 C13.3090059,10.5454545 13.3998466,10.507143 13.4668239,10.4389479 C13.5338011,10.3707529 13.5714286,10.2782605 13.5714286,10.1818182 L13.5714286,2.04945455 L8.56321428,6.43272727 C8.05986873,6.87329259 7.32479863,6.90282022 6.78892857,6.504 L6.72607143,6.45454545 L1.42857143,2.03163636 Z M12.0596429,1.45454545 L2.99071428,1.45454545 L7.63178571,5.32981817 L12.0596429,1.45454545 Z" id="形状"></path>
                </g>
                <g id="人员" transform="translate(13.500000, 6.000000) scale(-1, 1) translate(-13.500000, -6.000000) translate(9.000000, 0.000000)">
                    <path d="M5.34538241,3.6618705 C5.16685034,4.08872902 4.88252149,4.51079137 4.49459996,4.7529976 L4.49900816,4.7529976 C5.32774961,4.7529976 6,4.01918465 6,3.11990408 C6,2.64268585 5.80824333,2.21103118 5.50628168,1.91366906 C5.75314084,2.43645084 5.58562927,3.0911271 5.34538241,3.6618705 L5.34538241,3.6618705 Z" id="形状" fill="#FFD524"></path>
                    <path d="M3.73099099,6.0410056 C5.18922425,6.0410056 6.37543234,4.86233809 6.37543234,3.41337464 C6.37543234,1.9644112 5.18922425,0.78574369 3.73099099,0.78574369 C2.27275774,0.78574369 1.08431993,1.9644112 1.08431993,3.41337464 C1.08431993,4.86233809 2.27275774,6.0410056 3.73099099,6.0410056 L3.73099099,6.0410056 Z M3.73099099,1.90459161 C4.12342074,1.90459161 4.48017505,2.05524836 4.7499705,2.29895781 C5.05544138,2.57368482 5.24942654,2.97026656 5.24942654,3.41337464 C5.24942654,4.24641785 4.56713391,4.92215768 3.73099099,4.92215768 L3.72653156,4.92215768 C2.89261836,4.91994214 2.21255545,4.24420231 2.21255545,3.41337464 C2.21255545,2.58033144 2.89261836,1.90459161 3.73099099,1.90459161 L3.73099099,1.90459161 Z M0.977729111,10.7696848 C1.30565677,8.4547193 3.17056228,6.69472675 5.51618086,6.48951171 C6.37579676,6.41430506 7.24361622,6.56078104 8.02422353,6.9128234 C8.30834415,7.0391983 8.43378708,7.372944 8.30388697,7.6534132 C8.17417997,7.93608952 7.84041376,8.06092242 7.55832127,7.93214608 C6.95260937,7.6604345 6.2800638,7.54580235 5.61369488,7.60410207 C3.79450774,7.76326033 2.34498078,9.12884742 2.0923941,10.9234766 C2.05501326,11.1869554 1.83926004,11.3815277 1.58381862,11.4038759 C1.54161525,11.4075682 1.49902569,11.4068463 1.45585684,11.3995031 C1.15019792,11.3595247 0.935132192,11.075876 0.977729111,10.7696848 Z" id="形状" fill="#FFFFFF"></path>
                </g>
            </g>
        </g>
    </g>
</svg>