<?xml version="1.0" encoding="UTF-8"?>
<svg width="30px" height="30px" viewBox="0 0 30 30" version="1.1" xmlns="http://www.w3.org/2000/svg" xmlns:xlink="http://www.w3.org/1999/xlink">
    <title>facebook</title>
    <g id="切图用" stroke="none" stroke-width="1" fill="none" fill-rule="evenodd">
        <g id="产品终稿" transform="translate(-1480.000000, -8203.000000)">
            <g id="底部" transform="translate(0.000000, 7800.000000)">
                <g id="编组-18" transform="translate(0.000000, 386.000000)">
                    <g id="编组-25" transform="translate(1430.000000, 17.000000)">
                        <g id="facebook" transform="translate(50.000000, 0.000000)">
                            <rect id="矩形" fill="#EEEEEE" x="0" y="0" width="30" height="30" rx="4"></rect>
                            <path d="M21,4.15193586 C20.2515856,4.0492765 19.1945032,4 17.832981,4 C16.230444,4 14.94926,4.43116934 13.9852008,5.29350802 C13.0211416,6.1558467 12.5391121,7.37133359 12.5391121,8.93586234 L12.5391121,11.6871334 L9,11.6871334 L9,15.4239343 L12.5433404,15.4239343 L12.5433404,25 L16.7928118,25 L16.7928118,15.4157215 L20.3192389,15.4157215 L20.8604651,11.683027 L16.7928118,11.683027 L16.7928118,9.29722331 C16.7928118,8.68947986 16.9323467,8.23777865 17.2114165,7.93390692 C17.4904863,7.63414157 18.0232558,7.48220571 18.8181818,7.48220571 L21,7.48220571 L21,4.15193586 L21,4.15193586 Z" id="路径" fill="#333333" fill-rule="nonzero"></path>
                        </g>
                    </g>
                </g>
            </g>
        </g>
    </g>
</svg>