     <svg
              xmlns="http://www.w3.org/2000/svg"
              width="24"
              height="24"
              viewBox="0 0 24 24"
              fill="none"
            >
              <rect opacity="0.01" width="24" height="24" fill="black" />
              <path
                d="M12.5 0H17.5C18.875 0 20 1.05 20 2.33333V11.6667C20 12.95 18.875 14 17.5 14H12.5C11.125 14 10 12.95 10 11.6667V2.33333C10 1.05 11.125 0 12.5 0Z"
                fill="#FFCA00"
              />
              <path
                fill-rule="evenodd"
                clip-rule="evenodd"
                d="M18.4286 0H5.57143C4.15714 0 3 1.08 3 2.4V22.8C3 23.04 3.12857 23.28 3.25714 23.52C3.64286 24 4.54286 24.12 5.05714 23.76L11.2286 19.56C11.7429 19.32 12.3857 19.32 12.7714 19.56L18.9429 23.76C19.2 23.88 19.4571 24 19.7143 24C20.4857 24 21 23.52 21 22.8V2.4C21 1.08 19.8429 0 18.4286 0ZM4.28571 2.4C4.28571 1.68 4.8 1.2 5.57143 1.2H18.4286C19.2 1.2 19.7143 1.68 19.7143 2.4V22.8L13.4143 18.6C12.5143 18 11.3571 18 10.4571 18.6L4.28571 22.8V2.4Z"
                fill="#2951EA"
              />
            </svg>