<?xml version="1.0" encoding="UTF-8"?>
<svg width="16px" height="15px" viewBox="0 0 16 15" version="1.1" xmlns="http://www.w3.org/2000/svg" xmlns:xlink="http://www.w3.org/1999/xlink">
    <!-- Generator: Sketch 60.1 (88133) - https://sketch.com -->
    <title>形状</title>
    <desc>Created with Sketch.</desc>
    <g id="页面-1" stroke="none" stroke-width="1" fill="none" fill-rule="evenodd">
        <g id="自定义预设备份" transform="translate(-322.000000, -1008.000000)" fill="#FFFFFF" fill-rule="nonzero" stroke="#FFFFFF" stroke-width="0.5">
            <g id="编组" transform="translate(322.000000, 1008.000000)">
                <path d="M1.00031319,1.00000003 L2.00159624,1.00000003 C2.80102538,0.999848629 3.46812982,1.52185244 3.66982712,2.26980046 L3.6884622,2.34748771 L3.96141127,3.45282738 L3.93400674,3.45282738 L4.71824595,7.08489568 L5.31253265,9.95886967 L12.779561,9.95886967 L13.9072181,4.50910141 L5.00716794,4.50910141 L4.76256298,3.45267594 L13.8293892,3.45267594 C14.1813896,3.45265303 14.5147135,3.60581472 14.7370271,3.86973382 C14.9594208,4.13366129 15.0470775,4.48041051 14.9756813,4.81379293 L13.8480243,10.0969803 C13.7355874,10.623073 13.2565563,11.0001514 12.7011058,11 L5.3438521,11 C4.78871473,11 4.30984023,10.6227701 4.19740338,10.0969803 L3.08916439,4.9066239 L3.08180431,4.90813827 L2.57442911,2.58085234 C2.52149923,2.33855292 2.31165886,2.15758554 2.05656189,2.13441566 L2.00190943,2.13168979 L1,2.13168979 L1,1.00000003 L2.00128304,1.00000003 L1.00031319,1.00000003 Z M12.0000803,12 C12.5522915,12 13,12.4478331 13,13 C13,13.552167 12.5522915,14 12.0000803,14 C11.4477085,14 11,13.552167 11,13 C11,12.4478331 11.4477085,12 12.0000803,12 Z M6.00008026,12 C6.55229152,12 7,12.4478331 7,13 C7,13.552167 6.55229152,14 6.00008026,14 C5.44770848,14 5,13.552167 5,13 C5,12.4478331 5.44770848,12 6.00008026,12 Z" id="形状"></path>
            </g>
        </g>
    </g>
</svg>
