<?xml version="1.0" encoding="UTF-8"?>
<svg width="30px" height="30px" viewBox="0 0 30 30" version="1.1" xmlns="http://www.w3.org/2000/svg" xmlns:xlink="http://www.w3.org/1999/xlink">
    <title>in</title>
    <g id="切图用" stroke="none" stroke-width="1" fill="none" fill-rule="evenodd">
        <g id="产品终稿" transform="translate(-1430.000000, -8203.000000)">
            <g id="底部" transform="translate(0.000000, 7800.000000)">
                <g id="编组-18" transform="translate(0.000000, 386.000000)">
                    <g id="编组-25" transform="translate(1430.000000, 17.000000)">
                        <g id="in">
                            <rect id="矩形" fill="#EEEEEE" x="0" y="0" width="30" height="30" rx="4"></rect>
                            <path d="M8.1836478,10.3622642 C8.77484277,10.3622642 9.28553459,10.1484277 9.71823899,9.71320755 C10.1509434,9.28050314 10.3672956,8.76981132 10.3672956,8.17861635 C10.3672956,7.58993711 10.1509434,7.07672956 9.71823899,6.64402516 C9.28553459,6.2163522 8.77484277,6 8.1836478,6 C7.59245283,6 7.08176101,6.2163522 6.6490566,6.64654088 C6.2163522,7.07924528 6,7.58993711 6,8.18113208 C6,8.81761006 6.20377358,9.3408805 6.61383648,9.74842767 C7.02641509,10.1584906 7.54716981,10.3622642 8.1836478,10.3622642 Z M10.0251572,23.9974843 L10.0251572,12 L6.34465409,12 L6.34465409,24 L10.0251572,24 L10.0251572,23.9974843 Z M24,23.9974843 L24,17.3861635 C24,15.5698113 23.6930818,14.1710692 23.0792453,13.1924528 C22.4679245,12.2163522 21.2955975,11.7257862 19.5698113,11.7257862 C17.8415094,11.7257862 16.6616352,12.3622642 16.0251572,13.6352201 L15.9572327,13.6352201 L15.9572327,12 L12.4100629,12 L12.4100629,24 L16.090566,24 L16.090566,18.0679245 C16.090566,16.0226415 16.8402516,14.9987421 18.3396226,14.9987421 C18.9308176,14.9987421 19.3735849,15.1924528 19.6679245,15.5773585 C19.9622642,15.9647799 20.1333333,16.327044 20.1786164,16.6691824 C20.2238994,17.0113208 20.2465409,17.4993711 20.2465409,18.1358491 L20.2465409,24 L24,24 L24,23.9974843 Z" id="形状" fill="#333333" fill-rule="nonzero"></path>
                        </g>
                    </g>
                </g>
            </g>
        </g>
    </g>
</svg>