<?xml version="1.0" encoding="UTF-8"?>
<svg width="163px" height="21px" viewBox="0 0 163 21" version="1.1" xmlns="http://www.w3.org/2000/svg" xmlns:xlink="http://www.w3.org/1999/xlink">
    <title>logo_blue</title>
    <g id="top" stroke="none" stroke-width="1" fill="none" fill-rule="evenodd">
        <g id="logo_blue" fill="#2952EA" fill-rule="nonzero">
            <g id="logo" transform="translate(0.000000, 1.000000)">
                <path d="M62.5925926,0 C57.0697451,0 52.5925926,4.4771525 52.5925926,10 C52.5925926,15.5228475 57.0697451,20 62.5925926,20 C68.1154401,20 72.5925926,15.5228475 72.5925926,10 C72.5874997,4.47926344 68.1133292,0.00509293366 62.5925926,0 Z M62.5925926,15.9584296 C60.1803444,15.9584296 58.0057089,14.5050784 57.0830136,12.2762728 C56.1603183,10.0474672 56.6713386,7.4822917 58.3777163,5.77723568 C60.0840941,4.07217965 62.6496648,3.56314727 64.8777548,4.4875694 C67.1058447,5.41199152 68.5575096,7.58775257 68.5556429,10 C68.5530915,13.2914968 65.8840904,15.9584296 62.5925926,15.9584296 L62.5925926,15.9584296 Z" id="形状"></path>
                <path d="M48.4263589,9.05882475 L48.1643907,8.95672914 L48.4076469,8.81286714 C50.2619216,7.72117204 51.1489242,5.5323717 50.5723281,3.47122002 C49.9957319,1.41006834 48.0985416,-0.0122378563 45.9423391,7.93770362e-05 L36.2962963,7.93770362e-05 L36.2962963,19.2591822 L46.4990215,19.2591822 C49.0693923,19.2728668 51.2825917,17.4627262 51.759061,14.9570014 C52.2355303,12.4512766 50.8391769,9.96567123 48.4403929,9.04954333 L48.4263589,9.05882475 Z M45.1517566,3.64775746 C45.8519399,3.6132531 46.5143467,3.96418632 46.8748663,4.56063518 C47.235386,5.15708404 47.235386,5.9020463 46.8748663,6.49849515 C46.5143467,7.09494401 45.8519399,7.44587723 45.1517566,7.41137287 L40.174361,7.41137287 L40.174361,3.64775746 L45.1517566,3.64775746 Z M45.825389,15.6300694 L40.174361,15.6300694 L40.174361,11.035767 L45.8300671,11.035767 C46.7359293,10.9077177 47.6338786,11.315433 48.1282483,12.0792598 C48.6226179,12.8430866 48.6226179,13.8227498 48.1282483,14.5865766 C47.6338786,15.3504034 46.7359293,15.7581188 45.8300671,15.6300694 L45.825389,15.6300694 Z" id="形状"></path>
                <rect id="矩形" x="74.8148148" y="0" width="3.7037037" height="19.2592593"></rect>
                <rect id="矩形" x="88.1481481" y="0" width="3.7037037" height="19.2592593"></rect>
                <polygon id="路径" points="91.8518519 19.2592593 79.3922746 0 74.8148148 0 87.274392 19.2592593"></polygon>
                <polygon id="路径" points="108.148148 15.6220185 99.3337891 15.6220185 99.3337891 0 95.5555556 0 95.5555556 0.00464526273 95.5555556 19.2499687 95.5555556 19.2592593 99.5434378 19.2592593 99.5434378 19.2499687 108.148148 19.2499687"></polygon>
                <rect id="矩形" x="109.62963" y="0" width="3.7037037" height="19.2592593"></rect>
                <polygon id="路径" points="151.851852 3.63259545 151.851852 0 140.905013 0 137.037037 0 137.037037 19.2592593 140.905013 19.2592593 151.851852 19.2592593 151.851852 15.6266638 140.905013 15.6266638 140.905013 11.0278537 150.980392 11.0278537 150.980392 7.39990352 140.905013 7.39990352 140.905013 3.63259545"></polygon>
                <rect id="矩形" x="117.037037" y="0" width="3.7037037" height="19.2592593"></rect>
                <rect id="矩形" x="129.62963" y="0" width="3.7037037" height="19.2592593"></rect>
                <polygon id="路径" points="134.074074 19.2592593 121.609868 0 117.037037 0 129.496614 19.2592593"></polygon>
                <path d="M8.44900428,0 L0,0 L0,19.2592593 L3.89123586,19.2592593 L3.89123586,14.0522981 L8.44900428,14.0522981 C12.3738442,14.052298 15.5555556,10.906584 15.5555556,7.02614904 C15.5555556,3.14571412 12.3738442,0 8.44900428,0 Z M8.01716629,10.4092816 L3.89123586,10.4092816 L3.89123586,3.6476573 L8.03594185,3.6476573 C9.88032186,3.71513698 11.3402893,5.21298987 11.3402893,7.037751 C11.3402893,8.86251213 9.88032186,10.360365 8.03594185,10.4278447 L8.01716629,10.4092816 Z" id="形状"></path>
                <path d="M31.1387623,13.9767407 C29.5246535,15.8134905 26.9705453,16.4424778 24.7159242,15.5584605 C22.4613031,14.6744432 20.9728182,12.4603903 20.9728182,9.99076251 C20.9728182,7.52113467 22.4613031,5.30708183 24.7159242,4.42306452 C26.9705453,3.53904722 29.5246535,4.16803449 31.1387623,6.0047843 L34.0740741,3.30281761 C31.3641199,0.229663261 27.0832862,-0.818611854 23.3063947,0.666067125 C19.5295033,2.1507461 17.037037,5.86157488 17.037037,10 C17.037037,14.1384251 19.5295033,17.8492539 23.3063947,19.3339329 C27.0832862,20.8186119 31.3641199,19.7703367 34.0740741,16.6971824 L31.1387623,13.9767407 Z" id="路径"></path>
            </g>
            <path d="M158.537815,0 C160.98526,0 163,2.01474 163,4.53781513 C163,6.98526 160.98526,9 158.537815,9 C156.01474,9 154,6.98526 154,4.53781513 C154,2.01474 156.01474,0 158.537815,0 Z M158.5,0.75 C156.428929,0.75 154.75,2.42892857 154.75,4.5 C154.75,6.57107143 156.428929,8.25 158.5,8.25 C160.571071,8.25 162.25,6.57107143 162.25,4.5 C162.25,2.42892857 160.571071,0.75 158.5,0.75 Z M157.810811,6.66964286 L157,6.66964286 L157,2.25 L158.459459,2.25 C159.188875,2.24916129 159.806825,2.77979292 159.918919,3.45535714 C160.007621,4.20615362 159.559669,4.88310584 158.864865,5.0625 L160,6.1875 L159.432432,6.75 L157.810811,5.14285714 L157.810811,5.14285714 L157.810811,6.66964286 Z M158.455882,3 L157.75,3 L157.75,4.5 L158.455882,4.5 C158.914214,4.5 159.25,4.16421356 159.25,3.70588235 C159.25,3.33578644 158.914214,3 158.455882,3 Z" id="形状"></path>
        </g>
    </g>
</svg>