<?xml version="1.0" encoding="UTF-8"?>
<svg width="16px" height="16px" viewBox="0 0 16 16" version="1.1" xmlns="http://www.w3.org/2000/svg" xmlns:xlink="http://www.w3.org/1999/xlink">
    <title>编组</title>
    <g id="产品最后一次修改" stroke="none" stroke-width="1" fill="none" fill-rule="evenodd">
        <g id="产品第三稿最后一次调整" transform="translate(-467.000000, -2807.000000)" fill="#2952EA" fill-rule="nonzero">
            <g id="问题1备份-5" transform="translate(360.000000, 2681.000000)">
                <g id="Quote-Now" transform="translate(66.000000, 114.000000)">
                    <g id="编组-23" transform="translate(41.000000, 12.000000)">
                        <g id="编组">
                            <path d="M8.07434713,15.494139 C7.91240667,15.496287 7.75645347,15.4329286 7.64193367,15.3184088 C7.52741387,15.203889 7.46405549,15.0479358 7.46625907,14.8859954 L7.46625907,10.1996635 C7.46625907,9.86382573 7.73850936,9.59157544 8.07434712,9.59157544 C8.41018487,9.59157544 8.68243517,9.86382573 8.68243517,10.1996635 L8.68243517,14.8859954 C8.68243517,15.2218331 8.41018488,15.494139 8.07434713,15.494139 L8.07434713,15.494139 Z" id="路径"></path>
                            <path d="M8.07434713,15.8913743 C7.91294722,15.8921297 7.75804719,15.8278316 7.64463157,15.7129951 L5.42308325,13.4995546 C5.18596671,13.2621428 5.18596671,12.8775353 5.42308325,12.6401235 C5.53601557,12.5242237 5.69097646,12.4588566 5.8527988,12.4588566 C6.01462113,12.4588566 6.16958202,12.5242237 6.28251434,12.6401235 L8.07434713,14.4238485 L9.85807205,12.6401235 C10.0096648,12.4774372 10.2379694,12.4104698 10.4534217,12.4654926 C10.668874,12.5205153 10.8371113,12.6887527 10.8921341,12.904205 C10.9471569,13.1196573 10.8801894,13.3479618 10.7175032,13.4995546 L8.50406268,15.7129951 C8.39064706,15.8278316 8.23574704,15.8921297 8.07434713,15.8913743 L8.07434713,15.8913743 Z" id="路径"></path>
                            <path d="M4.62040703,5.94304717 L5.91766152,5.94304717 C6.14638232,5.93157299 6.37049655,6.0101585 6.54196525,6.16195886 C6.70494507,6.32143332 6.79323796,6.54216553 6.78520047,6.77004691 C6.78803341,6.99007758 6.7101551,7.20352185 6.56628878,7.37002711 C6.39882917,7.5470134 6.16065361,7.63930643 5.91766152,7.62137018 L5.01769122,7.62137018 L5.01769122,8.84565411 L4.62040703,8.84565411 L4.62040703,5.94304717 Z M6.14468106,6.34033136 C6.03467859,6.29324958 5.91561877,6.27109891 5.79604392,6.27546863 L4.98525986,6.27546863 L4.98525986,7.29705656 L5.79604392,7.29705656 C5.94481314,7.3026217 6.09178599,7.26305209 6.21765163,7.18354679 C6.33605437,7.08753882 6.39721232,6.93770183 6.37980843,6.7862626 C6.40601436,6.60242964 6.31117379,6.42255958 6.14468106,6.34033136 L6.14468106,6.34033136 Z M7.30410227,5.94304717 L8.46352348,5.94304717 C8.82213167,5.92343364 9.16754613,6.08099111 9.38781731,6.36465488 C9.58560535,6.65257104 9.68513481,6.99665862 9.67159173,7.3457036 C9.67173243,7.62485381 9.61374694,7.90097517 9.50132707,8.15648765 C9.33183588,8.57514673 8.91443769,8.83928152 8.46352348,8.81322275 L7.30410227,8.81322275 L7.30410227,5.94304717 Z M8.39866075,8.51323265 C8.50546362,8.51499381 8.61196211,8.50134016 8.71486653,8.47269345 C8.86876505,8.41638106 8.99983594,8.31095447 9.0878272,8.17270333 C9.17105312,8.03341838 9.22614573,7.8791591 9.24998402,7.71866427 C9.25710819,7.61879446 9.25710819,7.51854397 9.24998402,7.41867416 C9.25951872,7.13372294 9.18629967,6.85211121 9.03918015,6.6078901 C8.8894729,6.40293698 8.65242891,6.27991415 8.39866075,6.27546863 L7.70138646,6.27546863 L7.70138646,8.51323265 L8.39866075,8.51323265 Z M10.2553562,5.94304717 L12.2661007,5.94304717 L12.2661007,6.29979216 L10.6445326,6.29979216 L10.6445326,7.17543894 L12.0715126,7.17543894 L12.0715126,7.52407609 L10.6445326,7.52407609 L10.6445326,8.84565411 L10.2553562,8.84565411 L10.2553562,5.94304717 Z" id="形状"></path>
                            <path d="M12.0958361,11.4158396 L10.5796699,11.4158396 C10.2438321,11.4158396 9.97158184,11.1435893 9.97158184,10.8077515 C9.97158184,10.4719138 10.2438321,10.1996635 10.5796699,10.1996635 L12.0958361,10.1996635 C13.0913015,10.2543585 14.0354722,9.75437428 14.5496683,8.9002401 C15.0638644,8.04610591 15.0638644,6.97772274 14.5496683,6.12358856 C14.0354722,5.26945437 13.0913015,4.76947011 12.0958361,4.82416517 C11.7824226,4.82178148 11.5207308,4.58451428 11.487748,4.272832 C11.3389237,2.52295643 9.87513306,1.17837448 8.11894024,1.17837448 C6.36274743,1.17837448 4.89895674,2.52295643 4.75013247,4.272832 C4.73741564,4.59742929 4.47489253,4.8564048 4.15015227,4.86470437 C2.66798832,4.87813788 1.47734704,6.09055918 1.49078055,7.57272313 C1.50421407,9.05488709 2.71663536,10.2455284 4.19879932,10.2320949 L5.26903427,10.2320949 C5.60487203,10.2320949 5.87712232,10.5043451 5.87712232,10.8401829 C5.87712232,11.1760207 5.60487203,11.4482709 5.26903427,11.4482709 L4.19879932,11.4482709 C2.04719877,11.6094731 0.172301763,9.99593634 0.0110996392,7.8443358 C-0.150102485,5.69273525 1.46343424,3.81783824 3.61503479,3.65663612 C4.06041403,1.52635991 5.93855009,0.000279529363 8.11488632,0.000279529363 C10.2912226,0.000279529363 12.1693586,1.52635991 12.6147379,3.65663612 C14.6351797,3.94914992 16.0900353,5.74754075 15.9540954,7.78451642 C15.8181554,9.8214921 14.1372302,11.4106129 12.0958361,11.4320553 L12.0958361,11.4158396 Z" id="路径"></path>
                        </g>
                    </g>
                </g>
            </g>
        </g>
    </g>
</svg>