 <svg
              xmlns="http://www.w3.org/2000/svg"
              width="38"
              height="34"
              viewBox="0 0 38 34"
              fill="none"
            >
              <path
                d="M23.1194 1.33765L23.4687 9.48005L26.2782 10.7349L32.3291 10.0926L23.1194 1.33765Z"
                fill="#FFCA00"
              />
              <path
                fill-rule="evenodd"
                clip-rule="evenodd"
                d="M7.10625 11.7469V11.7422H24.6047V25.5797H5.19844H0V11.7422H5.19375V11.7469H7.10625ZM31.3359 11.1516V16.3594C31.3359 16.8844 31.7625 17.3109 32.2875 17.3109C32.8125 17.3109 33.2391 16.8844 33.2391 16.3594V10.6031C33.2391 9.47812 32.7703 8.40938 31.9453 7.64531L24.8625 1.09687C24.1172 0.407812 23.1422 0.0234375 22.125 0.0234375H9.225C6.99844 0.0234375 5.19375 1.82813 5.19375 4.05V11.7422H7.10625V4.05C7.10625 2.87813 8.05781 1.92656 9.22969 1.92656H22.1109V7.125C22.1109 9.35156 23.9156 11.1516 26.1375 11.1516H31.3359ZM30.8418 9.24375H32.2875V11.1516H31.3359V10.6078C31.3359 10.1079 31.158 9.6248 30.8418 9.24375ZM24.0187 2.90137L30.6562 9.04688C30.7225 9.1088 30.7844 9.17459 30.8418 9.24375H26.1422C24.9703 9.24375 24.0187 8.29219 24.0187 7.12031V2.90137ZM24.0187 2.90137V0.975H22.1109V1.92656H22.1344C22.6687 1.92656 23.1844 2.12812 23.5734 2.48906L24.0187 2.90137ZM5.19844 25.5797V28.6547C5.19844 29.7234 5.625 30.75 6.37969 31.5047C7.13438 32.2594 8.16094 32.6859 9.22969 32.6859H23.625C24.15 32.6859 24.5766 32.2594 24.5766 31.7344C24.5766 31.2094 24.15 30.7828 23.625 30.7828H9.225C8.6625 30.7828 8.12344 30.5578 7.725 30.1594C7.32656 29.7609 7.10156 29.2219 7.10156 28.6594V25.5844L5.19844 25.5797ZM31.3359 29.598V31.7297H33.2438V29.5078L35.9203 26.8313C36.375 26.5219 36.8016 26.5453 37.1906 26.9062C37.5797 27.2625 37.6031 27.6891 37.2656 28.1766L32.2406 33.2016L27.2156 28.1766C26.9016 27.6844 26.9156 27.2578 27.2578 26.9062C27.6047 26.5547 28.0359 26.5266 28.5656 26.8313L31.3359 29.598ZM31.3359 29.598V20.9672C31.4719 20.4328 31.7906 20.1656 32.2922 20.1609C32.7938 20.1516 33.1078 20.4234 33.2438 20.9672V29.5078L32.2453 30.5063L31.3359 29.598ZM4.06406 20.1281H2.70469V24.0375H1.35469V13.5703H4.33125C5.46094 13.5703 6.3375 13.8422 6.96094 14.3859C7.58437 14.9297 7.89844 15.7078 7.89844 16.725C7.89844 17.7516 7.53281 18.5859 6.80156 19.2234C6.07031 19.8609 5.16094 20.1656 4.06406 20.1281ZM2.70469 14.7656H4.08281C5.67656 14.7656 6.47344 15.4406 6.47344 16.7859C6.47344 17.4797 6.25781 18.0141 5.83125 18.3844C5.40469 18.7547 4.77656 18.9422 3.95156 18.9422H2.7V14.7656H2.70469ZM11.8172 24.0422H8.93906V13.5703H11.925C13.5094 13.5703 14.8312 14.0344 15.8812 14.9578C16.9359 15.8813 17.4609 17.1187 17.4609 18.675C17.4609 20.3016 16.9312 21.6 15.8812 22.575C14.8312 23.5547 13.4766 24.0422 11.8172 24.0422ZM10.2937 14.7797H11.8734C13.1203 14.7797 14.1281 15.1078 14.8922 15.7688C15.6562 16.425 16.0406 17.4094 16.0406 18.7172C16.0406 20.025 15.6703 21.0375 14.925 21.7641C14.1797 22.4906 13.1391 22.8516 11.8125 22.8516H10.2937V14.7797ZM23.9859 13.575V14.775H19.9453V18.2766H23.6906V19.4672H19.95V24.0422H18.5953V13.575H23.9859Z"
                fill="#2951EA"
              />
            </svg>