<?xml version="1.0" encoding="UTF-8"?>
<svg width="127px" height="145px" viewBox="0 0 127 145" version="1.1" xmlns="http://www.w3.org/2000/svg" xmlns:xlink="http://www.w3.org/1999/xlink">
    <!-- Generator: Sketch 60.1 (88133) - https://sketch.com -->
    <title>编组 2</title>
    <desc>Created with Sketch.</desc>
    <g id="页面-1" stroke="none" stroke-width="1" fill="none" fill-rule="evenodd">
        <g id="自定义预设备份" transform="translate(-182.000000, -1822.000000)" fill="#FFFFFF">
            <g id="编组-2" transform="translate(182.000000, 1822.000000)">
                <rect id="矩形" x="21.76" y="129.28" width="87.68" height="15.36"></rect>
                <path d="M64.96,72.32 C77.5079095,72.32 87.68,82.6353594 87.68,95.36 C87.68,108.084641 77.5079095,118.4 64.96,118.4 C52.4120905,118.4 42.24,108.084641 42.24,95.36 C42.24,82.6353594 52.4120905,72.32 64.96,72.32 Z M65.28,88.96 C61.7453776,88.96 58.88,91.8253776 58.88,95.36 C58.88,98.8946224 61.7453776,101.76 65.28,101.76 C68.8146224,101.76 71.68,98.8946224 71.68,95.36 C71.68,91.8253776 68.8146224,88.96 65.28,88.96 Z" id="形状结合"></path>
                <path d="M20.48,3.2 C31.7907917,3.2 40.96,12.3692083 40.96,23.68 C40.96,34.9907917 31.7907917,44.16 20.48,44.16 C9.16920832,44.16 0,34.9907917 0,23.68 C0,12.3692083 9.16920832,3.2 20.48,3.2 Z M20.48,17.92 C17.2988398,17.92 14.72,20.4988398 14.72,23.68 C14.72,26.8611602 17.2988398,29.44 20.48,29.44 C23.6611602,29.44 26.24,26.8611602 26.24,23.68 C26.24,20.4988398 23.6611602,17.92 20.48,17.92 Z" id="形状结合"></path>
                <path d="M86.0211264,118.053523 L93.31,140.506477 L36.61,140.506477 L43.8988736,118.053523 C49.0876469,122.015795 56.6013838,124.506477 64.96,124.506477 C73.3186162,124.506477 80.8323531,122.015795 86.0211264,118.053523 Z" id="形状结合"></path>
                <path d="M42.2256961,39.0166141 L64.0003137,66.3131289 C51.1342762,66.6786035 40.3413821,75.2952327 36.7614951,87.0404747 L15.0187295,51.6988504 C15.9731888,51.7922151 16.941014,51.84 17.92,51.84 C28.01422,51.84 36.9218884,46.7597684 42.2256961,39.0166141 Z" id="形状结合"></path>
                <path d="M45.08183,10.8282601 L103.04,14.6119063 L103.04,28.2680937 L45.6013344,32.0171559 C46.7393723,28.9162142 47.36,25.569797 47.36,22.08 C47.36,18.0913012 46.5492381,14.2899078 45.08183,10.8282601 Z" id="形状结合"></path>
                <rect id="矩形" x="86.4" y="3.93415316" width="20.48" height="34.56" rx="1.92"></rect>
                <rect id="矩形" transform="translate(109.120000, 6.174153) rotate(-30.000000) translate(-109.120000, -6.174153) " x="101.76" y="3.29415316" width="14.72" height="5.76"></rect>
                <rect id="矩形备份-12" transform="translate(118.983930, 36.254153) rotate(-30.000000) translate(-118.983930, -36.254153) " x="111.62393" y="33.3741532" width="14.72" height="5.76"></rect>
                <rect id="矩形备份-10" transform="translate(109.120000, 36.254153) scale(1, -1) rotate(-30.000000) translate(-109.120000, -36.254153) " x="101.76" y="33.3741532" width="14.72" height="5.76"></rect>
                <rect id="矩形备份-11" transform="translate(118.983930, 6.174153) scale(1, -1) rotate(-30.000000) translate(-118.983930, -6.174153) " x="111.62393" y="3.29415316" width="14.72" height="5.76"></rect>
            </g>
        </g>
    </g>
</svg>