<?xml version="1.0" encoding="UTF-8"?>
<svg width="30px" height="30px" viewBox="0 0 30 30" version="1.1" xmlns="http://www.w3.org/2000/svg" xmlns:xlink="http://www.w3.org/1999/xlink">
    <title>youtube</title>
    <g id="切图用" stroke="none" stroke-width="1" fill="none" fill-rule="evenodd">
        <g id="产品终稿" transform="translate(-1530.000000, -8203.000000)">
            <g id="底部" transform="translate(0.000000, 7800.000000)">
                <g id="编组-18" transform="translate(0.000000, 386.000000)">
                    <g id="编组-25" transform="translate(1430.000000, 17.000000)">
                        <g id="youtube" transform="translate(100.000000, 0.000000)">
                            <rect id="矩形" fill="#2952EA" x="0" y="0" width="30" height="30" rx="4"></rect>
                            <path d="M21.7078125,11.5328125 C21.546875,10.9296875 21.071875,10.4546875 20.4703125,10.29375 C19.378125,10 15,10 15,10 C15,10 10.621875,10 9.5296875,10.2921875 C8.9265625,10.453125 8.453125,10.928125 8.2921875,11.53125 C8,12.625 8,14.90625 8,14.90625 C8,14.90625 8,17.1875 8.2921875,18.2796875 C8.453125,18.8828125 8.928125,19.3578125 9.5296875,19.51875 C10.621875,19.8125 15,19.8125 15,19.8125 C15,19.8125 19.378125,19.8125 20.4703125,19.51875 C21.0734375,19.3578125 21.546875,18.8828125 21.7078125,18.2796875 C22,17.1875 22,14.90625 22,14.90625 C22,14.90625 22,12.625 21.7078125,11.5328125 Z M13.609375,17 L13.609375,12.8125 L17.234375,14.890625 L13.609375,17 Z" id="形状" fill="#FFFFFF" fill-rule="nonzero"></path>
                        </g>
                    </g>
                </g>
            </g>
        </g>
    </g>
</svg>